<?xml version="1.0" encoding="UTF-8"?>
<svg version="1.1" xmlns="http://www.w3.org/2000/svg" width="416" height="484">
<path d="M0 0 C4.87483435 4.09236804 8.59725735 8.44217387 12.25 13.625 C12.83394531 14.35976562 13.41789063 15.09453125 14.01953125 15.8515625 C21.43051659 25.50683316 25.57669086 37.62333444 27.25 49.625 C28.24257813 49.57859375 29.23515625 49.5321875 30.2578125 49.484375 C49.02715752 48.8773367 64.50363179 54.74591054 78.25 67.625 C90.84466935 81.28251065 94.10947703 98.63749293 93.39257812 116.55615234 C93.21466323 119.13774617 92.77721661 121.64357717 92.3125 124.1875 C91.79209383 128.3151051 92.94848399 130.17205688 95.375 133.5 C96.01953125 134.3146875 96.6640625 135.129375 97.328125 135.96875 C105.32182172 147.01694872 106.08663558 159.50571447 105.25 172.625 C104.67320186 176.21749865 103.73574874 179.31063743 102.25 182.625 C101.92128906 183.36621094 101.59257812 184.10742188 101.25390625 184.87109375 C95.29565255 196.76698435 86.56751489 203.85129063 74.25 208.625 C71.08940458 209.48069116 67.92435626 210.1981291 64.7265625 210.8984375 C61.18336332 211.93792496 59.60099233 213.82922534 57.25 216.625 C47.36995261 225.65296939 37.49434882 228.58142975 24.33203125 227.98828125 C12.22908123 227.08898223 5.42290331 220.89357275 -2.75 212.625 C-4.63285272 210.74214728 -7.88528299 211.49618539 -10.38848877 211.49369812 C-11.09070895 211.49158241 -11.79292913 211.48946669 -12.51642871 211.48728687 C-14.88759542 211.48125897 -17.25870933 211.48228903 -19.62988281 211.4831543 C-21.32320242 211.48012439 -23.01652122 211.47660341 -24.70983887 211.47262573 C-28.36738425 211.4647192 -32.0249198 211.45958505 -35.68247223 211.45633507 C-41.47460419 211.45043146 -47.26667447 211.43389404 -53.05877686 211.41499329 C-55.04159923 211.40865505 -57.02442165 211.40232944 -59.00724411 211.39601612 C-60.00062208 211.39285031 -60.99400004 211.3896845 -62.01748037 211.38642275 C-75.50610847 211.34436691 -88.99470923 211.31141129 -102.48339844 211.29907227 C-111.57426989 211.29067064 -120.66498997 211.26809592 -129.7557857 211.2297166 C-134.56457947 211.21001402 -139.37314726 211.19753173 -144.18198395 211.20255089 C-148.71617421 211.20722499 -153.24993797 211.19324233 -157.78404236 211.16553879 C-159.43950246 211.15867116 -161.09500708 211.15845219 -162.75046539 211.16573906 C-178.43158172 211.2277355 -192.64574367 208.37512869 -204.5 197.375 C-214.51742322 186.62689414 -219.16226388 172.66137896 -219.03125 158.16796875 C-218.1285765 146.79679007 -213.45775769 135.17959478 -205.375 127.125 C-202.57061658 124.19385303 -202.57061658 124.19385303 -201.4609375 120.4375 C-201.66291603 118.8216718 -201.92451763 117.21268427 -202.23046875 115.61328125 C-205.17268293 98.69001927 -200.69414854 84.06116958 -191.75 69.625 C-182.79984422 57.67390964 -170.92953828 50.98990233 -156.5 47.9375 C-150.58793901 47.44482825 -144.6786959 47.55099409 -138.75 47.625 C-138.523125 46.408125 -138.29625 45.19125 -138.0625 43.9375 C-133.46241328 23.6653937 -120.94970281 4.3751713 -103.25390625 -6.9296875 C-68.96622561 -26.72132843 -31.26029119 -24.42210249 0 0 Z " fill="#FEFEFE" transform="translate(257.75,85.375)"/>
<path d="M0 0 C4.87483435 4.09236804 8.59725735 8.44217387 12.25 13.625 C12.83394531 14.35976562 13.41789063 15.09453125 14.01953125 15.8515625 C21.43051659 25.50683316 25.57669086 37.62333444 27.25 49.625 C28.24257813 49.57859375 29.23515625 49.5321875 30.2578125 49.484375 C49.02715752 48.8773367 64.50363179 54.74591054 78.25 67.625 C90.84466935 81.28251065 94.10947703 98.63749293 93.39257812 116.55615234 C93.21466323 119.13774617 92.77721661 121.64357717 92.3125 124.1875 C91.79209383 128.3151051 92.94848399 130.17205688 95.375 133.5 C96.01953125 134.3146875 96.6640625 135.129375 97.328125 135.96875 C105.32182172 147.01694872 106.08663558 159.50571447 105.25 172.625 C104.67320186 176.21749865 103.73574874 179.31063743 102.25 182.625 C101.92128906 183.36621094 101.59257812 184.10742188 101.25390625 184.87109375 C95.29565255 196.76698435 86.56751489 203.85129063 74.25 208.625 C71.08940458 209.48069116 67.92435626 210.1981291 64.7265625 210.8984375 C61.18336332 211.93792496 59.60099233 213.82922534 57.25 216.625 C47.36995261 225.65296939 37.49434882 228.58142975 24.33203125 227.98828125 C12.22908123 227.08898223 5.42290331 220.89357275 -2.75 212.625 C-4.63285272 210.74214728 -7.88528299 211.49618539 -10.38848877 211.49369812 C-11.09070895 211.49158241 -11.79292913 211.48946669 -12.51642871 211.48728687 C-14.88759542 211.48125897 -17.25870933 211.48228903 -19.62988281 211.4831543 C-21.32320242 211.48012439 -23.01652122 211.47660341 -24.70983887 211.47262573 C-28.36738425 211.4647192 -32.0249198 211.45958505 -35.68247223 211.45633507 C-41.47460419 211.45043146 -47.26667447 211.43389404 -53.05877686 211.41499329 C-55.04159923 211.40865505 -57.02442165 211.40232944 -59.00724411 211.39601612 C-60.00062208 211.39285031 -60.99400004 211.3896845 -62.01748037 211.38642275 C-75.50610847 211.34436691 -88.99470923 211.31141129 -102.48339844 211.29907227 C-111.57426989 211.29067064 -120.66498997 211.26809592 -129.7557857 211.2297166 C-134.56457947 211.21001402 -139.37314726 211.19753173 -144.18198395 211.20255089 C-148.71617421 211.20722499 -153.24993797 211.19324233 -157.78404236 211.16553879 C-159.43950246 211.15867116 -161.09500708 211.15845219 -162.75046539 211.16573906 C-178.43158172 211.2277355 -192.64574367 208.37512869 -204.5 197.375 C-214.51742322 186.62689414 -219.16226388 172.66137896 -219.03125 158.16796875 C-218.1285765 146.79679007 -213.45775769 135.17959478 -205.375 127.125 C-202.57061658 124.19385303 -202.57061658 124.19385303 -201.4609375 120.4375 C-201.66291603 118.8216718 -201.92451763 117.21268427 -202.23046875 115.61328125 C-205.17268293 98.69001927 -200.69414854 84.06116958 -191.75 69.625 C-182.79984422 57.67390964 -170.92953828 50.98990233 -156.5 47.9375 C-150.58793901 47.44482825 -144.6786959 47.55099409 -138.75 47.625 C-138.523125 46.408125 -138.29625 45.19125 -138.0625 43.9375 C-133.46241328 23.6653937 -120.94970281 4.3751713 -103.25390625 -6.9296875 C-68.96622561 -26.72132843 -31.26029119 -24.42210249 0 0 Z M-88.75 -5.375 C-89.86117187 -4.84261719 -90.97234375 -4.31023437 -92.1171875 -3.76171875 C-108.98772938 5.0117145 -121.84979313 19.65159085 -127.8828125 37.77734375 C-129.22007328 42.16861902 -130.55091895 46.56125139 -131.8203125 50.97265625 C-132.75 53.625 -132.75 53.625 -134.75 55.625 C-136.95800781 55.7409668 -136.95800781 55.7409668 -139.703125 55.57421875 C-155.84090121 54.87971756 -165.4617081 56.27893808 -178.1875 66.9375 C-188.33320837 76.85035605 -194.86354531 89.14651638 -195.1875 103.5625 C-194.90879463 108.98905753 -194.2022117 114.7205766 -191.75 119.625 C-191.125 122.3125 -191.125 122.3125 -191.75 125.625 C-193.546875 127.22265625 -193.546875 127.22265625 -195.875 128.875 C-201.19289951 132.681848 -203.91808195 136.78901082 -206.75 142.625 C-207.16378906 143.45773438 -207.57757813 144.29046875 -208.00390625 145.1484375 C-212.34272161 155.21690798 -212.31048193 166.30538228 -208.6875 176.5625 C-203.57925006 188.10600336 -195.78996929 195.81476184 -184.12065125 200.69696045 C-176.44567418 203.43015197 -168.82814228 203.15495156 -160.80395508 203.07910156 C-159.11762519 203.07797127 -157.43129335 203.07861049 -155.7449646 203.08087158 C-151.19806482 203.08201256 -146.65159282 203.05860382 -142.10479188 203.03057575 C-137.34158679 203.00545866 -132.57837035 203.00321201 -127.81510925 202.99847412 C-118.8091012 202.98607451 -109.80328891 202.95329393 -100.7973668 202.91307616 C-90.53856797 202.86826432 -80.27975946 202.8463478 -70.02088702 202.82629442 C-48.93048237 202.78455845 -27.84025355 202.71426537 -6.75 202.625 C-6.91008545 201.36655273 -7.0701709 200.10810547 -7.23510742 198.81152344 C-8.76994682 186.74600188 -7.87032664 175.89598257 -0.5625 165.75 C6.80319366 157.08078273 16.1903764 153.18180304 27.25 151.625 C30.21828898 151.45474754 33.18355053 151.41405533 36.15625 151.38671875 C37.42063904 151.37461113 37.42063904 151.37461113 38.71057129 151.36225891 C40.48557518 151.34848605 42.26060479 151.3377338 44.03564453 151.32983398 C45.84529415 151.31827749 47.65490872 151.29776817 49.46435547 151.26831055 C52.09105377 151.22560582 54.71674758 151.20946626 57.34375 151.19921875 C58.14703735 151.18171066 58.95032471 151.16420258 59.7779541 151.14616394 C65.07354718 151.16652244 68.02774412 152.14681683 72.25 155.625 C74.98756796 159.14922542 74.55474635 163.3462899 74.5 167.625 C74.49323242 168.38248535 74.48646484 169.1399707 74.47949219 169.92041016 C74.30164723 179.68740719 72.66679731 188.34912356 69.0546875 197.4453125 C68.13455715 199.55045775 68.13455715 199.55045775 68.25 201.625 C73.87393626 199.97531203 78.50553909 198.18334568 83.25 194.625 C84.075 194.068125 84.9 193.51125 85.75 192.9375 C92.41062636 186.77642062 96.92807221 178.76562477 97.49609375 169.6953125 C97.8510139 155.4985066 96.33661595 145.2278941 86.375 134.5 C83.72178048 130.91035006 83.76422502 128.99697481 84.25 124.625 C84.42015625 124.03976563 84.5903125 123.45453125 84.765625 122.8515625 C85.97364775 117.29855469 85.35664823 111.2885824 85.25 105.625 C85.25644531 104.58214844 85.26289063 103.53929687 85.26953125 102.46484375 C84.9292153 90.42414133 78.78523513 80.24595658 70.57421875 71.7421875 C59.70527354 61.84140043 47.99099727 57.22324714 33.4375 57.625 C31.55621618 57.67587989 29.67466829 57.71799377 27.79296875 57.75 C26.5558313 57.78480469 26.5558313 57.78480469 25.29370117 57.8203125 C23.25 57.625 23.25 57.625 21.25 55.625 C20.70969839 53.57478577 20.1781494 51.52161698 19.70410156 49.45507812 C14.65989384 27.52595922 2.49040822 10.05065309 -16.6875 -2.0625 C-37.82859127 -14.84914412 -66.71481414 -16.33623695 -88.75 -5.375 Z " fill="#263C4F" transform="translate(257.75,85.375)"/>
<path d="M0 0 C0.25136719 0.556875 0.50273438 1.11375 0.76171875 1.6875 C2.20128462 4.37590061 3.91157404 6.61566457 5.8125 9 C6.47894531 9.845625 7.14539062 10.69125 7.83203125 11.5625 C12.44680722 16.75100488 17.56220135 20.64864839 24.61188316 21.36914349 C25.9768274 21.38163104 27.34198412 21.37783999 28.70687866 21.36076355 C29.46337885 21.36332682 30.21987903 21.3658901 30.99930346 21.36853105 C33.52368112 21.37345615 36.04745517 21.35699747 38.57177734 21.34057617 C40.38544704 21.33972962 42.19911777 21.34020559 44.01278687 21.34190369 C48.92972041 21.34276398 53.84643414 21.32513266 58.76331663 21.30418181 C63.90426232 21.28542071 69.04521311 21.28366502 74.18618774 21.28010559 C83.91834431 21.27078348 93.65039971 21.24616739 103.38251173 21.21605712 C114.46344151 21.18251835 125.54437613 21.16602841 136.62534404 21.15097082 C159.4169521 21.11961802 182.20847038 21.06685422 205 21 C204.4866689 22.98160807 203.97333781 24.96321615 203.46000671 26.94482422 C202.85197838 29.66131742 202.77096801 32.22113211 202.8125 35 C202.81894531 35.94875 202.82539063 36.8975 202.83203125 37.875 C202.96512793 40.35121738 203.19459627 42.73994427 203.51049805 45.1953125 C203.67203369 46.45085937 203.83356934 47.70640625 204 49 C181.89438831 49.09356291 159.7888094 49.16403777 137.68303967 49.20724869 C127.41826433 49.22784817 117.15361223 49.25591873 106.88891602 49.30175781 C97.93914607 49.34170567 88.98946541 49.3674518 80.03960878 49.37635398 C75.30347118 49.38155528 70.56758895 49.39372552 65.83153343 49.42292023 C61.36720496 49.45021508 56.90323532 49.45841676 52.43883133 49.45243073 C50.80668623 49.4535247 49.17452823 49.46139446 47.54245567 49.4768219 C33.09516248 49.60660616 22.01737645 46.9207791 11 37 C0.98528973 25.79615901 -0.65003168 14.39097909 0 0 Z " fill="#E3E8EC" transform="translate(47,239)"/>
<path d="M0 0 C0.85421036 -0.00960754 1.70842072 -0.01921509 2.58851624 -0.02911377 C3.50733078 -0.03336365 4.42614532 -0.03761353 5.37280273 -0.04199219 C6.31824448 -0.04769226 7.26368622 -0.05339233 8.23777771 -0.05926514 C10.2358183 -0.06870848 12.23387441 -0.07524648 14.23193359 -0.07910156 C17.29804262 -0.08884065 20.36349071 -0.11988368 23.42944336 -0.15136719 C25.3688925 -0.15789398 27.30834643 -0.16314572 29.24780273 -0.16699219 C30.16864151 -0.17933899 31.08948029 -0.19168579 32.03822327 -0.20440674 C32.88928146 -0.20140564 33.74033966 -0.19840454 34.6171875 -0.1953125 C35.74278831 -0.20078094 35.74278831 -0.20078094 36.89112854 -0.20635986 C37.80824867 -0.02445099 37.80824867 -0.02445099 38.74389648 0.16113281 C42.55913828 5.8839955 41.44329367 13.96474968 40.34106445 20.578125 C38.40924705 30.02711059 36.08091463 38.6796936 29.74389648 46.16113281 C29.02202148 47.21300781 28.30014648 48.26488281 27.55639648 49.34863281 C20.90000206 56.00502724 11.74390796 60.15257078 2.36889648 60.47363281 C-4.79694808 60.33732599 -10.25071775 58.10216722 -16.25610352 54.16113281 C-13.71153884 51.94846788 -11.14769755 50.63517735 -8.06860352 49.34863281 C-0.52809693 46.07446548 7.5843582 41.55586755 11.74389648 34.16113281 C12.24777238 30.36605249 12.24777238 30.36605249 11.74389648 27.16113281 C11.08389648 27.16113281 10.42389648 27.16113281 9.74389648 27.16113281 C8.1774079 28.7485068 8.1774079 28.7485068 6.55639648 30.78613281 C-0.99250807 39.5188778 -8.35288805 43.55232206 -19.25610352 47.16113281 C-20.24610352 47.16113281 -21.23610352 47.16113281 -22.25610352 47.16113281 C-26.71748196 38.51721207 -27.81562471 29.86061437 -25.59594727 20.32519531 C-22.89693627 12.73057563 -18.24909684 6.43832976 -11.00610352 2.72363281 C-7.30269726 1.07191362 -4.07299092 0.03702148 0 0 Z " fill="#52E283" transform="translate(284.256103515625,244.8388671875)"/>
<path d="M0 0 C0.66 0 1.32 0 2 0 C3.50574487 4.40140807 2.83184695 6.96438418 0.875 11 C-4.73606669 21.24096325 -12.1940742 27.23721181 -23.34765625 30.5546875 C-23.89292969 30.70164062 -24.43820312 30.84859375 -25 31 C-24.80664062 30.35933594 -24.61328125 29.71867187 -24.4140625 29.05859375 C-23.87256191 27.25984675 -23.33363385 25.46032391 -22.796875 23.66015625 C-22.16819893 21.56148762 -21.52435404 19.46736301 -20.875 17.375 C-20.1816182 14.70052733 -19.8116895 12.40904024 -19.5625 9.6875 C-19.376875 8.470625 -19.19125 7.25375 -19 6 C-15.34271595 3.56181064 -12.06712105 3.3283308 -7.8125 2.875 C-6.68811523 2.74544922 -6.68811523 2.74544922 -5.54101562 2.61328125 C-3.69482588 2.40161618 -1.84750656 2.19984536 0 2 C0 1.34 0 0.68 0 0 Z " fill="#E3E7EC" transform="translate(351,256)"/>
<path d="M0 0 C3.51322547 0.96916565 5.55148878 1.8149351 7.7421875 4.7890625 C9.76528161 9.85574952 9.52430307 15.69721291 8.625 21 C6.81337381 23.72299642 5.55807124 25.53346438 2.625 27 C-0.73739734 27.5172919 -3.19271137 27.7289492 -6.16796875 25.89453125 C-10.08845926 22.123038 -10.82301648 18.75163731 -11 13.375 C-10.96308701 8.19487726 -9.98046954 5.73657752 -6.375 2 C-3.375 0 -3.375 0 0 0 Z " fill="#2A3F53" transform="translate(237.375,175)"/>
<path d="M0 0 C4.67275945 0 7.19687623 2.62505656 10.44921875 5.625 C13.84187744 8.6331004 17.1165386 8.27115274 21.46484375 8.21484375 C26.45562226 7.79189642 29.23512246 5.80130028 32.625 2.25 C33.40875 1.5075 34.1925 0.765 35 0 C37.31016597 0.12834255 38.36605745 0.36605745 40 2 C40.07757631 5.87881567 39.88938787 7.94332251 37.359375 10.94921875 C30.33279498 17.34555209 23.88194013 18.57215764 14.48828125 18.453125 C9.17820179 17.76334984 5.93162247 15.49093511 2 12 C1.154375 11.34 0.30875 10.68 -0.5625 10 C-2.55888405 7.22242219 -2.43518451 5.33641458 -2 2 C-1.34 1.34 -0.68 0.68 0 0 Z " fill="#293D51" transform="translate(176,208)"/>
<path d="M0 0 C3.52451522 1.08028805 5.04912757 2.80171494 7.28125 5.69921875 C7.91015625 9.29296875 7.91015625 9.29296875 7.84375 13.19921875 C7.84568359 15.1328125 7.84568359 15.1328125 7.84765625 17.10546875 C7.20852485 21.16064731 6.15033491 22.82477106 3.28125 25.69921875 C0.14253812 27.26857469 -2.25730822 27.05122978 -5.71875 26.69921875 C-8.87829305 24.15784716 -10.43415886 22.55299216 -11.71875 18.69921875 C-12.86351258 7.36606925 -12.86351258 7.36606925 -9.78125 2.94921875 C-6.22745968 0.33827076 -4.29127404 0.02266518 0 0 Z " fill="#2A3F52" transform="translate(155.71875,175.30078125)"/>
<path d="M0 0 C1.1700097 3.91736581 0.69584017 6.97959015 0 11 C-0.66 11 -1.32 11 -2 11 C-2 15.95 -2 20.9 -2 26 C-2.33 26 -2.66 26 -3 26 C-3.55353075 8.14350797 -3.55353075 8.14350797 0 0 Z " fill="#58646F" transform="translate(58,172)"/>
<path d="M0 0 C-1.50349377 3.66786393 -3.63728792 5.68910393 -6.625 8.25 C-7.44226563 8.95640625 -8.25953125 9.6628125 -9.1015625 10.390625 C-9.72804688 10.92171875 -10.35453125 11.4528125 -11 12 C-11.66 11.67 -12.32 11.34 -13 11 C-4.00842697 0 -4.00842697 0 0 0 Z " fill="#1A3344" transform="translate(81,142)"/>
<path d="M0 0 C0.66 0.33 1.32 0.66 2 1 C-0.66666667 3.66666667 -3.33333333 6.33333333 -6 9 C-6.66 8.67 -7.32 8.34 -8 8 C-7.04578192 6.85073734 -6.08647955 5.70569459 -5.125 4.5625 C-4.59132813 3.92441406 -4.05765625 3.28632813 -3.5078125 2.62890625 C-2 1 -2 1 0 0 Z " fill="#67E688" transform="translate(271,249)"/>
<path d="M0 0 C0.66 0.33 1.32 0.66 2 1 C-1.3 4.3 -4.6 7.6 -8 11 C-8 7.0234755 -6.61988497 5.9109833 -4 3 C-1.75 1.1875 -1.75 1.1875 0 0 Z " fill="#D7DBDE" transform="translate(63,213)"/>
<path d="M0 0 C0 1.32 0 2.64 0 4 C0.66 4.33 1.32 4.66 2 5 C2 5.66 2 6.32 2 7 C-1.37503669 5.8141763 -3.64722731 4.72426311 -6 2 C-2.25 0 -2.25 0 0 0 Z " fill="#4CD780" transform="translate(274,296)"/>
<path d="M0 0 C2.625 -0.1875 2.625 -0.1875 5 0 C5 0.99 5 1.98 5 3 C2.69 3 0.38 3 -2 3 C-1.34 2.01 -0.68 1.02 0 0 Z " fill="#304455" transform="translate(234,175)"/>
</svg>
